<svg width="279" height="295" viewBox="0 0 279 295" fill="none" xmlns="http://www.w3.org/2000/svg">
<g filter="url(#filter0_d_1_118)">
<rect x="52.3152" y="7.1272" width="223.557" height="223.557" rx="22.3557" transform="rotate(11.6617 52.3152 7.1272)" fill="#F2BA5E"/>
<rect x="47.9713" y="0.523941" width="234.735" height="234.735" rx="27.9446" transform="rotate(11.6617 47.9713 0.523941)" stroke="black" stroke-width="11.1778"/>
</g>
<path d="M53.6447 127.788L54.6287 123.018C58.911 123.902 62.0835 123.62 64.1462 122.175C66.2345 120.734 67.7125 117.911 68.5801 113.706L71.1194 101.397C71.8494 97.8587 72.815 94.8631 74.016 92.4108C75.2426 89.9637 76.7998 88.0527 78.6875 86.6777C80.5752 85.3027 82.8858 84.4695 85.6194 84.1779C88.3529 83.8864 91.6044 84.1294 95.3738 84.9071L93.8185 92.446C90.844 91.8323 88.4025 91.8098 86.494 92.3785C84.6111 92.9525 83.1097 94.1398 81.9896 95.9405C80.9005 97.7209 80.0465 100.111 79.4276 103.111L76.2535 118.497C75.8408 120.497 75.196 122.262 74.3189 123.792C73.4675 125.327 72.2149 126.539 70.5613 127.428C68.9076 128.317 66.7068 128.812 63.959 128.913C61.2369 129.02 57.7988 128.645 53.6447 127.788ZM75.0596 183.374C71.2902 182.597 68.2079 181.533 65.813 180.183C63.418 178.834 61.6258 177.154 60.4364 175.144C59.247 173.135 58.5733 170.763 58.4153 168.031C58.2829 165.303 58.5817 162.17 59.3117 158.631L61.851 146.323C62.7186 142.118 62.4785 138.94 61.1308 136.791C59.8087 134.647 57.0065 133.133 52.7242 132.249L53.7082 127.48C57.8623 128.337 61.1681 129.353 63.6258 130.528C66.109 131.709 67.9342 133.035 69.1012 134.505C70.2682 135.976 70.9388 137.584 71.1131 139.331C71.313 141.084 71.2066 142.96 70.794 144.96L67.6199 160.345C67.001 163.346 66.8393 165.879 67.1349 167.945C67.4561 170.016 68.3677 171.688 69.8696 172.96C71.392 174.263 73.6404 175.222 76.6149 175.835L75.0596 183.374ZM52.7242 132.249L54.6287 123.018L63.7061 124.891L61.8017 134.122L52.7242 132.249ZM120.102 119.042C122.871 119.613 125.325 120.547 127.464 121.844C129.633 123.12 131.519 124.605 133.121 126.299C134.754 127.973 136.14 129.675 137.28 131.408C138.029 132.444 138.695 133.491 139.279 134.547C139.889 135.608 140.453 136.634 140.97 137.623C141.76 136.904 142.586 136.205 143.448 135.527C144.309 134.85 145.382 134.122 146.665 133.344C149.264 131.634 152.32 130.233 155.833 129.14C159.373 128.052 163.258 127.945 167.489 128.818C171.387 129.622 174.73 131.301 177.518 133.854C180.337 136.387 182.352 139.45 183.562 143.041C184.804 146.612 185.023 150.347 184.219 154.244C183.61 157.193 182.488 159.849 180.851 162.211C179.245 164.553 177.279 166.501 174.954 168.053C172.634 169.579 170.078 170.629 167.286 171.203C164.525 171.756 161.683 171.731 158.76 171.128C155.94 170.546 153.432 169.614 151.237 168.333C149.072 167.031 147.171 165.556 145.533 163.908C143.925 162.239 142.547 160.565 141.396 158.884C140.664 157.77 140.005 156.685 139.421 155.629C138.842 154.547 138.332 153.52 137.891 152.547C137.025 153.25 136.098 153.981 135.113 154.74C134.159 155.479 133.125 156.215 132.011 156.948C130.289 158.036 128.348 159.026 126.185 159.916C124.054 160.787 121.737 161.391 119.235 161.73C116.763 162.049 114.142 161.923 111.373 161.352C107.424 160.537 104.043 158.85 101.229 156.291C98.4148 153.733 96.3898 150.655 95.1535 147.058C93.9172 143.461 93.7064 139.688 94.5211 135.739C95.1242 132.816 96.2261 130.196 97.8268 127.88C99.4584 125.543 101.434 123.612 103.754 122.085C106.1 120.564 108.666 119.529 111.452 118.981C114.27 118.413 117.153 118.433 120.102 119.042ZM103.291 137.549C102.815 139.856 102.932 142.073 103.643 144.198C104.386 146.303 105.576 148.112 107.215 149.627C108.885 151.121 110.874 152.106 113.182 152.582C115.721 153.106 118.16 153.007 120.501 152.287C122.842 151.567 125.071 150.543 127.19 149.216C128.582 148.3 129.825 147.394 130.919 146.497C132.013 145.6 133.009 144.722 133.908 143.865C133.406 142.799 132.84 141.653 132.211 140.427C131.613 139.181 130.817 137.854 129.824 136.446C128.481 134.405 126.852 132.585 124.936 130.986C123.045 129.393 120.831 128.335 118.292 127.811C115.985 127.335 113.765 127.466 111.635 128.202C109.536 128.919 107.729 130.097 106.214 131.736C104.731 133.354 103.756 135.292 103.291 137.549ZM175.449 152.435C175.914 150.179 175.773 148.011 175.026 145.932C174.31 143.832 173.129 142.038 171.485 140.55C169.871 139.04 167.936 138.053 165.68 137.587C163.936 137.228 162.239 137.158 160.59 137.38C158.945 137.575 157.361 137.997 155.837 138.645C154.319 139.267 152.879 140.026 151.518 140.922C149.864 141.944 148.448 142.975 147.271 144.015C146.125 145.035 145.312 145.737 144.832 146.119C145.318 147.262 145.886 148.461 146.535 149.718C147.185 150.975 147.968 152.3 148.884 153.692C150.304 155.749 151.946 157.572 153.811 159.159C155.701 160.752 157.954 161.819 160.569 162.358C162.826 162.824 164.991 162.696 167.065 161.974C169.17 161.232 170.966 160.039 172.455 158.394C173.975 156.729 174.973 154.743 175.449 152.435ZM224.987 162.816L224.003 167.585C219.721 166.702 216.536 166.98 214.447 168.421C212.385 169.867 210.919 172.692 210.052 176.898L207.513 189.206C206.783 192.745 205.804 195.737 204.578 198.184C203.377 200.637 201.832 202.551 199.944 203.926C198.057 205.301 195.746 206.134 193.013 206.425C190.279 206.717 187.028 206.474 183.258 205.696L184.813 198.157C187.788 198.771 190.219 198.778 192.107 198.178C194.016 197.61 195.515 196.435 196.604 194.655C197.719 192.88 198.585 190.492 199.204 187.492L202.379 172.106C202.791 170.106 203.423 168.339 204.275 166.803C205.152 165.273 206.417 164.064 208.071 163.175C209.724 162.287 211.912 161.789 214.634 161.682C217.382 161.581 220.833 161.959 224.987 162.816ZM203.572 107.229C207.342 108.007 210.424 109.07 212.819 110.42C215.214 111.769 217.006 113.449 218.196 115.459C219.385 117.469 220.046 119.837 220.178 122.565C220.336 125.297 220.05 128.433 219.32 131.972L216.781 144.28C215.913 148.486 216.141 151.66 217.463 153.804C218.81 155.954 221.625 157.47 225.908 158.354L224.924 163.123C220.77 162.266 217.451 161.247 214.968 160.067C212.51 158.891 210.698 157.568 209.531 156.098C208.364 154.627 207.68 153.016 207.48 151.264C207.306 149.517 207.425 147.643 207.838 145.643L211.012 130.258C211.631 127.258 211.78 124.722 211.459 122.651C211.168 120.559 210.259 118.874 208.732 117.597C207.23 116.324 204.992 115.381 202.017 114.768L203.572 107.229ZM225.908 158.354L224.003 167.585L214.926 165.712L216.83 156.481L225.908 158.354Z" fill="black"/>
<defs>
<filter id="filter0_d_1_118" x="0" y="0" width="278.385" height="294.034" filterUnits="userSpaceOnUse" color-interpolation-filters="sRGB">
<feFlood flood-opacity="0" result="BackgroundImageFix"/>
<feColorMatrix in="SourceAlpha" type="matrix" values="0 0 0 0 0 0 0 0 0 0 0 0 0 0 0 0 0 0 127 0" result="hardAlpha"/>
<feOffset dy="15.649"/>
<feComposite in2="hardAlpha" operator="out"/>
<feColorMatrix type="matrix" values="0 0 0 0 0 0 0 0 0 0 0 0 0 0 0 0 0 0 1 0"/>
<feBlend mode="normal" in2="BackgroundImageFix" result="effect1_dropShadow_1_118"/>
<feBlend mode="normal" in="SourceGraphic" in2="effect1_dropShadow_1_118" result="shape"/>
</filter>
</defs>
</svg>
