<svg width="134" height="134" viewBox="0 0 134 134" fill="none" xmlns="http://www.w3.org/2000/svg">
<path d="M80.1266 42.9589C83.7347 42.7134 85.3806 44.2952 88.3455 45.986L99.0906 52.2322L108.692 57.7767C112.214 59.7764 116.102 61.1461 116.803 65.7821C117.133 68.0514 116.551 70.3594 115.183 72.2005C113.793 74.0737 112.22 74.7285 110.026 75.0544C105.942 75.4791 103.908 73.5155 100.591 71.5687L90.3265 65.5694C86.9598 63.576 83.3025 62.0522 80.0751 59.6945C79.1221 58.9983 77.7485 58.43 76.7102 57.708C70.6842 53.5183 72.7178 44.2549 80.1266 42.9589Z" fill="#201A52"/>
<path d="M24.2983 59.191C28.0526 58.8616 30.8532 61.2391 33.959 63.0302L43.6479 68.558L53.4962 74.2583C54.935 75.087 56.6847 75.7499 57.9842 76.774C63.7566 81.3232 61.5036 89.9669 54.3008 91.2699C50.7316 91.6617 48.09 89.4703 45.1994 87.8165L34.7464 81.7728C32.0278 80.2102 29.459 78.7793 26.7548 77.1146C22.9032 74.8927 17.9106 73.1779 17.3436 68.0304C16.8732 63.7598 20.0066 59.747 24.2983 59.191Z" fill="#FCC608"/>
<path d="M52.4209 42.9621C53.8906 42.7976 55.377 43.041 56.7174 43.6657C58.4675 44.4841 60.2247 46.6263 60.8853 48.4364C62.2124 51.7481 60.4232 56.2603 57.3162 57.976C53.3963 60.1405 49.5029 62.7369 45.5131 64.8344C43.1826 66.0598 42.7732 66.6784 40.3222 65.0752C39.7298 64.6877 38.4112 64.0824 37.7304 63.7454C37.1174 63.4664 35.43 62.3956 34.7825 61.972C31.6225 59.9046 29.46 58.9624 25.8711 57.8622C28.1068 55.8875 31.498 54.2126 34.1235 52.7102C37.1315 50.9887 40.276 49.183 43.2271 47.3833C45.3589 46.0832 50.0296 43.1834 52.4209 42.9621Z" fill="#FCC608"/>
<path d="M91.722 68.0176C91.9043 68.047 96.5991 70.492 97.0442 70.7541C99.3228 72.0959 101.678 73.8093 104.039 75.049C105.503 75.818 107.391 76.1768 108.983 76.604C106.395 77.6295 105.184 78.5168 102.807 79.8861L93.2738 85.5009C91.1738 86.7305 89.4162 87.3121 87.3432 88.6591C84.7434 90.4352 81.8659 91.9401 78.6494 90.9136C72.1856 88.8509 71.2892 80.3741 76.6239 76.5259C77.6956 75.7528 78.8619 75.266 79.9898 74.5901C83.7823 72.1039 87.6799 70.0513 91.722 68.0176Z" fill="#201A52"/>
</svg>
